HIERARCHY
ROOT Hips
{
	OFFSET -0.001795 -0.223333 0.028219
	CHANNELS 6 Xposition Yposition Zposition Zrotation Yrotation Xrotation 
	JOINT LeftUpLeg
	{
		OFFSET 0.069520 -0.091406 -0.006815
		CHANNELS 3 Zrotation Yrotation Xrotation
		JOINT LeftLeg
		{
			OFFSET 0.034277 -0.375199 -0.004496
			CHANNELS 3 Zrotation Yrotation Xrotation
			JOINT LeftFoot
			{
				OFFSET -0.013596 -0.397961 -0.043693
				CHANNELS 3 Zrotation Yrotation Xrotation
				JOINT LeftToe
				{
					OFFSET 0.026358 -0.055791 0.119288
					CHANNELS 3 Zrotation Yrotation Xrotation
					End Site
					{
						OFFSET 0.000000 0.000000 0.000000
					}
				}
			}
		}
	}
	JOINT RightUpLeg
	{
		OFFSET -0.067670 -0.090522 -0.004320
		CHANNELS 3 Zrotation Yrotation Xrotation
		JOINT RightLeg
		{
			OFFSET -0.038290 -0.382569 -0.008850
			CHANNELS 3 Zrotation Yrotation Xrotation
			JOINT RightFoot
			{
				OFFSET 0.015774 -0.398415 -0.042312
				CHANNELS 3 Zrotation Yrotation Xrotation
				JOINT RightToe
				{
					OFFSET -0.025372 -0.048144 0.123348
					CHANNELS 3 Zrotation Yrotation Xrotation
					End Site
					{
						OFFSET 0.000000 0.000000 0.000000
					}
				}
			}
		}
	}
	JOINT Spine
	{
		OFFSET -0.002533 0.108963 -0.026696
		CHANNELS 3 Zrotation Yrotation Xrotation
		JOINT Spine1
		{
			OFFSET 0.005487 0.135180 0.001092
			CHANNELS 3 Zrotation Yrotation Xrotation
			JOINT Spine2
			{
				OFFSET 0.001457 0.052922 0.025425
				CHANNELS 3 Zrotation Yrotation Xrotation
				JOINT Neck
				{
					OFFSET -0.002778 0.213870 -0.042857
					CHANNELS 3 Zrotation Yrotation Xrotation
					JOINT Head
					{
						OFFSET 0.005152 0.064970 0.051349
						CHANNELS 3 Zrotation Yrotation Xrotation
						End Site
						{
							OFFSET 0.000000 0.000000 0.000000
						}
					}
				}
				JOINT LeftShoulder
				{
					OFFSET 0.078845 0.121749 -0.034090
					CHANNELS 3 Zrotation Yrotation Xrotation
					JOINT LeftArm
					{
						OFFSET 0.090977 0.030469 -0.008868
						CHANNELS 3 Zrotation Yrotation Xrotation
						JOINT LeftForeArm
						{
							OFFSET 0.259612 -0.012772 -0.027456
							CHANNELS 3 Zrotation Yrotation Xrotation
							JOINT LeftHand
							{
								OFFSET 0.249234 0.008986 -0.001171
								CHANNELS 3 Zrotation Yrotation Xrotation
								End Site
								{
									OFFSET 0.000000 0.000000 0.000000
								}
							}
						}
					}
				}
				JOINT RightShoulder
				{
					OFFSET -0.081759 0.118833 -0.038615
					CHANNELS 3 Zrotation Yrotation Xrotation
					JOINT RightArm
					{
						OFFSET -0.096012 0.032551 -0.009143
						CHANNELS 3 Zrotation Yrotation Xrotation
						JOINT RightForeArm
						{
							OFFSET -0.253742 -0.013329 -0.021401
							CHANNELS 3 Zrotation Yrotation Xrotation
							JOINT RightHand
							{
								OFFSET -0.255298 0.007772 -0.005559
								CHANNELS 3 Zrotation Yrotation Xrotation
								End Site
								{
									OFFSET 0.000000 0.000000 0.000000
								}
							}
						}
					}
				}
			}
		}
	}
}
MOTION
Frames: 6
Frame Time: 0.050000
0.000000 0.955152 0.000000 -1.646042 0.432221 -3.676098 4.573733 0.493587 10.428149 -2.463691 0.335819 -5.413092 2.498518 9.128126 13.447956 0.000000 0.000000 0.000000 -0.613891 -0.609344 6.439967 1.718113 -0.211348 -1.015062 -2.559484 -9.799623 12.013818 0.000000 0.000000 0.000000 -1.547160 -0.247108 8.691079 5.595278 -0.715265 -24.912826 -2.058072 0.003954 28.611015 1.184037 0.454095 -19.707495 0.000000 0.000000 0.000000 -35.088013 0.850407 -3.162491 -43.367965 -2.178240 -6.648631 -12.773906 -24.729030 4.034598 0.000000 0.000000 0.000000 27.076745 3.124968 0.569124 49.182404 0.878603 -7.074463 10.006650 25.917193 3.323281 0.000000 0.000000 0.000000 
-0.000270 0.955108 0.001341 -1.995892 0.219506 -3.281964 4.987443 0.452832 10.402837 -2.549454 0.347677 -5.919687 2.600950 9.281219 13.521840 0.000000 0.000000 0.000000 -0.598995 -0.541041 5.738043 2.330740 -0.257732 -0.302865 -2.367421 -9.400232 11.750981 0.000000 0.000000 0.000000 -1.202165 -0.252988 8.112191 5.032770 -0.579768 -24.909234 -1.835613 -0.193964 28.754034 1.007720 0.513136 -19.663406 0.000000 0.000000 0.000000 -35.803425 1.848854 -3.841292 -43.054993 -2.022494 -6.722643 -12.621778 -24.383043 3.965687 0.000000 0.000000 0.000000 26.349777 3.089140 0.469935 50.137300 0.263639 -7.433925 9.299850 26.835997 3.302245 0.000000 0.000000 0.000000 
-0.000433 0.954733 0.002522 -1.710693 0.280485 -3.303484 4.949390 0.440163 10.049868 -2.994042 0.367498 -5.130727 2.595281 9.230976 13.317435 0.000000 0.000000 0.000000 -0.796832 -0.551220 5.983739 1.989821 -0.226303 -0.499688 -2.203116 -9.032052 11.524978 0.000000 0.000000 0.000000 -1.052907 -0.256148 7.912527 4.491957 -0.429999 -25.183520 -1.701343 -0.570337 29.206122 0.030660 1.077491 -18.890130 0.000000 0.000000 0.000000 -35.968916 1.713584 -3.557411 -42.530797 -2.109601 -6.716353 -12.100058 -23.228238 3.660208 0.000000 0.000000 0.000000 26.024776 4.057367 0.969764 50.596812 0.421366 -7.429501 7.893968 25.763651 2.819736 0.000000 0.000000 0.000000 
-0.000693 0.954871 0.003805 -1.715247 0.070645 -3.598068 4.919310 0.484475 10.727226 -2.921351 0.367968 -5.548090 2.631234 9.308268 13.494320 0.000000 0.000000 0.000000 -0.806900 -0.569343 6.204302 2.022321 -0.218053 0.001823 -2.113019 -8.764990 11.030409 0.000000 0.000000 0.000000 -1.145210 -0.250474 7.929493 5.214908 -0.563851 -25.838722 -2.047771 -0.279112 30.131497 0.304008 0.893359 -18.697975 0.000000 0.000000 0.000000 -37.295384 2.143038 -4.090465 -41.508157 -1.806446 -6.711839 -12.501043 -22.540289 3.620970 0.000000 0.000000 0.000000 26.258756 4.593930 1.403837 50.094117 0.940126 -7.288184 7.831323 25.282431 2.756742 0.000000 0.000000 0.000000 
-0.000930 0.955104 0.004904 -1.612070 -0.037040 -3.859827 4.705353 0.536451 11.208689 -2.716812 0.358327 -5.737577 2.637948 9.344570 13.653739 0.000000 0.000000 0.000000 -0.971345 -0.588168 6.546427 1.817664 -0.197509 -0.077493 -1.692698 -8.035220 11.274625 0.000000 0.000000 0.000000 -1.055671 -0.265841 8.230745 5.390895 -0.669118 -25.027596 -2.172650 0.181179 29.041828 0.247487 0.941726 -17.431009 0.000000 0.000000 0.000000 -37.151824 1.950681 -4.190285 -41.128236 -1.304794 -6.641092 -13.296514 -22.214308 3.688042 0.000000 0.000000 0.000000 26.541345 4.451714 1.399253 49.585627 0.851301 -7.175537 8.163548 24.910190 2.773282 0.000000 0.000000 0.000000 
-0.001033 0.955137 0.005733 -1.546222 -0.025210 -4.200036 4.728016 0.556874 11.599605 -2.839427 0.365308 -5.673567 2.593028 9.283233 13.670057 0.000000 0.000000 0.000000 -1.131621 -0.620506 7.022880 1.881311 -0.205341 -0.108255 -1.553448 -7.747432 11.188414 0.000000 0.000000 0.000000 -1.186385 -0.258767 8.268661 5.471609 -0.685676 -25.100003 -2.166405 0.197929 29.564875 -0.006504 1.107878 -17.140754 0.000000 0.000000 0.000000 -37.009154 1.752434 -3.988243 -40.945765 -1.109567 -6.724147 -13.735232 -22.636395 3.852587 0.000000 0.000000 0.000000 26.400337 5.025782 1.793352 49.369240 0.902540 -7.185876 8.244418 25.140036 2.817297 0.000000 0.000000 0.000000 
